# xmcd CD database file
#
# Track frame offsets:
#	150
#	20181
#	53516
#	106073
#	115434
#	141756
#	163174
#	205847
#
# Disc length: 3140 seconds
#
# Revision: 0
# Processed by: cddbd v1.5.2PL0 Copyright (c) Steve Scherf et al.
# Submitted via: CDex 1.51
#
DISCID=6c0c4208
DTITLE=Christophe Monniot et Emile Spanyi - Ozone
DYEAR=2006
DGENRE=Jazz
TTITLE0=Lullaby of Birdland
TTITLE1=Mood Indigo
TTITLE2=Le petit paso rouge
TTITLE3=Reine de musette
TTITLE4=Zingaro
TTITLE5=Jubille Stomp
TTITLE6=Blanc cassé
TTITLE7=Tenderly
EXTD=YEAR: 2006
EXTT0=
EXTT1=
EXTT2=
EXTT3=
EXTT4=
EXTT5=
EXTT6=
EXTT7=
PLAYORDER=
